<svg class="diagram-root" style="background: rgb(245, 246, 246); --darkreader-inline-bgimage: initial; --darkreader-inline-bgcolor: #d5d3cf;" xmlns="http://www.w3.org/2000/svg" xmlns:xlink="http://www.w3.org/1999/xlink" data-darkreader-inline-bgimage="" data-darkreader-inline-bgcolor=""><style>.diagram-root { font-family: "Helvetica Neue", sans-serif; font-size: 12px; } .t { overflow: visible; } .t-bg { y: 40; fill: #fff;   } .th { fill: #005aa0;   } .tht { fill: #fff; font-size: 14px;  } .tf { fill: #323c46; overflow: visible; } .tf.pk { fill: #005aa0; font-weight: bold; } .tf.fk { font-weight: bold; } .ty { fill: #adb1b5; font-weight: normal; text-anchor: end; } .r { fill: transparent; stroke: #c3c3c3; stroke-width: 1; } .l { stroke: 1; } .i { fill: #c2c7ce; stroke: #c2c7ce; } .i.ix { fill: #afb3b6; stroke: #000; } .fa { fill: transparent; overflow: visible; } .fa .bg.hover { fill: #f7f7f7; } .c { cy: 12; r: 4; stroke: #d2d2dc; fill: #d2d2dc; } .hr { fill: transparent; stroke: #323c46; stroke-opacity: 0.035; stroke-width: 13; } .dc { stroke: #fa5a3c; fill: #fa5a3c; } .x { stroke: white; stroke-width: 1; } .hl .th { fill: #1b9bff; } .hl .tht {  } .fhl .bg { fill: #e7f4ff; } .fhls .bg {  } .r.hl { stroke: #1b9bff; } .dim { opacity: 0.25; }</style><g class="drawing-wrapper" transform="translate(-59.78333333333336, 96) scale(1,1)"><g class="rs"><path d="M 547.04 324.4177777777778 m -1, 0 a 1,1 0 1,0 2,0 a 1,1 0 1,0 -2,0 M 547.04 324.4177777777778 m -0.5, 0 a 0.5,0.5 0 1,0 1,0 a 0.5,0.5 0 1,0 -1,0  M547.04 324.4177777777778 L547.04 324.4177777777778 559.04 324.4177777777778 M553.04 330.4177777777778 L553.04 330.4177777777778 553.04 318.4177777777778 M559.04 324.4177777777778 C 618.8 324.4177777777778, 615.14 -9, 565.14 -9 M 553.14 -9 m -1, 0 a 1,1 0 1,0 2,0 a 1,1 0 1,0 -2,0 M 553.14 -9 m -0.5, 0 a 0.5,0.5 0 1,0 1,0 a 0.5,0.5 0 1,0 -1,0  M553.14 -9 L553.14 -9 565.14 -9 M 553.14 -3 m -1, 0 a 1,1 0 1,0 2,0 a 1,1 0 1,0 -2,0 M 553.14 -3 m -0.5, 0 a 0.5,0.5 0 1,0 1,0 a 0.5,0.5 0 1,0 -1,0  M553.14 -3 L553.14 -3 560.14 -9 553.14 -15 M 553.14 -15 m -1, 0 a 1,1 0 1,0 2,0 a 1,1 0 1,0 -2,0 M 553.14 -15 m -0.5, 0 a 0.5,0.5 0 1,0 1,0 a 0.5,0.5 0 1,0 -1,0 " id="h1537058300" class="r"></path><path d="M 667 249 m -1, 0 a 1,1 0 1,0 2,0 a 1,1 0 1,0 -2,0 M 667 249 m -0.5, 0 a 0.5,0.5 0 1,0 1,0 a 0.5,0.5 0 1,0 -1,0  M667 249 L667 249 655 249 M661 255 L661 255 661 243 M655 249 Q 631.01 249, 607.02 274.21 T 559.04 299.4177777777778 M 547.04 299.4177777777778 m -1, 0 a 1,1 0 1,0 2,0 a 1,1 0 1,0 -2,0 M 547.04 299.4177777777778 m -0.5, 0 a 0.5,0.5 0 1,0 1,0 a 0.5,0.5 0 1,0 -1,0  M547.04 299.4177777777778 L547.04 299.4177777777778 559.04 299.4177777777778 M553.04 305.4177777777778 L553.04 305.4177777777778 553.04 293.4177777777778" id="h3177548053" class="r"></path><path d="M 553.83 600.11 m -1, 0 a 1,1 0 1,0 2,0 a 1,1 0 1,0 -2,0 M 553.83 600.11 m -0.5, 0 a 0.5,0.5 0 1,0 1,0 a 0.5,0.5 0 1,0 -1,0  M553.83 600.11 L553.83 600.11 565.83 600.11 M559.83 606.11 L559.83 606.11 559.83 594.11 M565.83 600.11 C 615.83 600.11, 619.9040000000001 299.4177777777778, 559.04 299.4177777777778 M 547.04 299.4177777777778 m -1, 0 a 1,1 0 1,0 2,0 a 1,1 0 1,0 -2,0 M 547.04 299.4177777777778 m -0.5, 0 a 0.5,0.5 0 1,0 1,0 a 0.5,0.5 0 1,0 -1,0  M547.04 299.4177777777778 L547.04 299.4177777777778 554.04 299.4177777777778 M 547.04 305.4177777777778 m -1, 0 a 1,1 0 1,0 2,0 a 1,1 0 1,0 -2,0 M 547.04 305.4177777777778 m -0.5, 0 a 0.5,0.5 0 1,0 1,0 a 0.5,0.5 0 1,0 -1,0  M547.04 305.4177777777778 L547.04 305.4177777777778 554.04 299.4177777777778 547.04 293.4177777777778 M 547.04 293.4177777777778 m -1, 0 a 1,1 0 1,0 2,0 a 1,1 0 1,0 -2,0 M 547.04 293.4177777777778 m -0.5, 0 a 0.5,0.5 0 1,0 1,0 a 0.5,0.5 0 1,0 -1,0  M 556.54 299.4177777777778 m -2.5, 0 a 2.5,2.5 0 1,0 5,0 a 2.5,2.5 0 1,0 -5,0" id="h2286254435" class="r"></path><path d="M 263.61 65.5644444444446 m -1, 0 a 1,1 0 1,0 2,0 a 1,1 0 1,0 -2,0 M 263.61 65.5644444444446 m -0.5, 0 a 0.5,0.5 0 1,0 1,0 a 0.5,0.5 0 1,0 -1,0  M263.61 65.5644444444446 L263.61 65.5644444444446 270.61 65.5644444444446 M 263.61 71.5644444444446 m -1, 0 a 1,1 0 1,0 2,0 a 1,1 0 1,0 -2,0 M 263.61 71.5644444444446 m -0.5, 0 a 0.5,0.5 0 1,0 1,0 a 0.5,0.5 0 1,0 -1,0  M263.61 71.5644444444446 L263.61 71.5644444444446 270.61 65.5644444444446 263.61 59.564444444444604 M 263.61 59.564444444444604 m -1, 0 a 1,1 0 1,0 2,0 a 1,1 0 1,0 -2,0 M 263.61 59.564444444444604 m -0.5, 0 a 0.5,0.5 0 1,0 1,0 a 0.5,0.5 0 1,0 -1,0  M 273.11 65.5644444444446 m -2.5, 0 a 2.5,2.5 0 1,0 5,0 a 2.5,2.5 0 1,0 -5,0 M275.61 65.5644444444446 Q 294.68 65.5644444444446, 313.75 182.49 T 351.88333333333287 299.4177777777778 M 363.88333333333287 299.4177777777778 m -1, 0 a 1,1 0 1,0 2,0 a 1,1 0 1,0 -2,0 M 363.88333333333287 299.4177777777778 m -0.5, 0 a 0.5,0.5 0 1,0 1,0 a 0.5,0.5 0 1,0 -1,0  M363.88333333333287 299.4177777777778 L363.88333333333287 299.4177777777778 351.88333333333287 299.4177777777778 M357.88333333333287 305.4177777777778 L357.88333333333287 305.4177777777778 357.88333333333287 293.4177777777778" id="h1139284389" class="r"></path><path d="M 81.78333333333336 90.5644444444446 m -1, 0 a 1,1 0 1,0 2,0 a 1,1 0 1,0 -2,0 M 81.78333333333336 90.5644444444446 m -0.5, 0 a 0.5,0.5 0 1,0 1,0 a 0.5,0.5 0 1,0 -1,0  M81.78333333333336 90.5644444444446 L81.78333333333336 90.5644444444446 74.78333333333336 90.5644444444446 M 81.78333333333336 96.5644444444446 m -1, 0 a 1,1 0 1,0 2,0 a 1,1 0 1,0 -2,0 M 81.78333333333336 96.5644444444446 m -0.5, 0 a 0.5,0.5 0 1,0 1,0 a 0.5,0.5 0 1,0 -1,0  M81.78333333333336 96.5644444444446 L81.78333333333336 96.5644444444446 74.78333333333336 90.5644444444446 81.78333333333336 84.5644444444446 M 81.78333333333336 84.5644444444446 m -1, 0 a 1,1 0 1,0 2,0 a 1,1 0 1,0 -2,0 M 81.78333333333336 84.5644444444446 m -0.5, 0 a 0.5,0.5 0 1,0 1,0 a 0.5,0.5 0 1,0 -1,0  M 72.28333333333336 90.5644444444446 m -2.5, 0 a 2.5,2.5 0 1,0 5,0 a 2.5,2.5 0 1,0 -5,0 M69.78333333333336 90.5644444444446 C 21.376879998917225 90.5644444444446, 20.846213332250542 235.7811111111112, 70.66777777777783 235.7811111111112 M 82.66777777777783 235.7811111111112 m -1, 0 a 1,1 0 1,0 2,0 a 1,1 0 1,0 -2,0 M 82.66777777777783 235.7811111111112 m -0.5, 0 a 0.5,0.5 0 1,0 1,0 a 0.5,0.5 0 1,0 -1,0  M82.66777777777783 235.7811111111112 L82.66777777777783 235.7811111111112 70.66777777777783 235.7811111111112 M76.66777777777783 241.7811111111112 L76.66777777777783 241.7811111111112 76.66777777777783 229.7811111111112" id="h1607168654" class="r"></path></g><g class="hrs"></g><g class="ts"><svg width="173.14" height="100" x="380" y="-66" id="h311790747" class="t"><rect height="40" width="173.14" class="th"></rect><text x="13" y="25" class="tht">titles</text><rect height="60" width="173.14" class="t-bg"></rect><text x="13" y="61" class="tf pk">title_id<tspan x="160.14" class="ty">VARCHAR(5)</tspan></text><path d="M7,14A2,2 0 0,1 5,12A2,2 0 0,1 7,10A2,2 0 0,1 9,12A2,2 0 0,1 7,14M12.65,10C11.83,7.67 9.61,6 7, 6A6, 6 0 0, 0 1, 12A6, 6 0 0, 0 7, 18C9.61, 18 11.83, 16.33 12.65, 14H17V18H21V14H23V10H12.65Z" class="i pk" transform="translate(67.68882812499999, 48) scale(0.65)"></path><text x="13" y="86" class="tf">title<tspan x="160.14" class="ty">VARCHAR(20)</tspan></text><path d="M22,18V22H18V19H15V16H12L9.74,13.74C9.19,13.91 8.61,14 8,14A6,6 0 0,1 2,8A6,6 0 0,1 8,2A6,6 0 0,1 14,8C14,8.61 13.91, 9.19 13.74, 9.74L22, 18M7, 5A2, 2 0 0, 0 5, 7A2, 2 0 0, 0 7, 9A2, 2 0 0, 0 9, 7A2, 2 0 0, 0 7, 5Z" class="i uq" transform="translate(65.01499999999999, 75.5) scale(0.5)"></path></svg><svg width="128.7" height="100" x="667" y="192" id="h2472833127" class="t"><rect height="40" width="128.7" class="th"></rect><text x="13" y="25" class="tht">salaries</text><rect height="60" width="128.7" class="t-bg"></rect><text x="13" y="61" class="tf pk">emp_no<tspan x="115.69999999999999" class="ty">INT</tspan></text><path d="M7,14A2,2 0 0,1 5,12A2,2 0 0,1 7,10A2,2 0 0,1 9,12A2,2 0 0,1 7,14M12.65,10C11.83,7.67 9.61,6 7, 6A6, 6 0 0, 0 1, 12A6, 6 0 0, 0 7, 18C9.61, 18 11.83, 16.33 12.65, 14H17V18H21V14H23V10H12.65Z" class="i pk" transform="translate(76.36992187499999, 48) scale(0.65)"></path><text x="13" y="86" class="tf">salary<tspan x="115.69999999999999" class="ty">INT</tspan></text></svg><svg width="181.83" height="100" x="372" y="518.11" id="h1676682957" class="t"><rect height="40" width="181.83" class="th"></rect><text x="13" y="25" class="tht">dept_manager</text><rect height="60" width="181.83" class="t-bg"></rect><text x="13" y="61" class="tf pk">dept_no<tspan x="168.83" class="ty">VARCHAR(4)</tspan></text><path d="M7,14A2,2 0 0,1 5,12A2,2 0 0,1 7,10A2,2 0 0,1 9,12A2,2 0 0,1 7,14M12.65,10C11.83,7.67 9.61,6 7, 6A6, 6 0 0, 0 1, 12A6, 6 0 0, 0 7, 18C9.61, 18 11.83, 16.33 12.65, 14H17V18H21V14H23V10H12.65Z" class="i pk" transform="translate(76.37882812500001, 48) scale(0.65)"></path><text x="13" y="86" class="tf pk">emp_no<tspan x="168.83" class="ty">INT</tspan></text><path d="M7,14A2,2 0 0,1 5,12A2,2 0 0,1 7,10A2,2 0 0,1 9,12A2,2 0 0,1 7,14M12.65,10C11.83,7.67 9.61,6 7, 6A6, 6 0 0, 0 1, 12A6, 6 0 0, 0 7, 18C9.61, 18 11.83, 16.33 12.65, 14H17V18H21V14H23V10H12.65Z" class="i pk" transform="translate(129.499921875, 73) scale(0.65)"></path></svg><svg width="183.16" height="225" x="363.88333333333287" y="242.41777777777784" id="h1639608377" class="t"><rect height="40" width="183.16" class="th"></rect><text x="13" y="25" class="tht">employees</text><rect height="185" width="183.16" class="t-bg"></rect><text x="13" y="61" class="tf pk">emp_no<tspan x="170.16" class="ty">INT</tspan></text><path d="M7,14A2,2 0 0,1 5,12A2,2 0 0,1 7,10A2,2 0 0,1 9,12A2,2 0 0,1 7,14M12.65,10C11.83,7.67 9.61,6 7, 6A6, 6 0 0, 0 1, 12A6, 6 0 0, 0 7, 18C9.61, 18 11.83, 16.33 12.65, 14H17V18H21V14H23V10H12.65Z" class="i pk" transform="translate(130.829921875, 48) scale(0.65)"></path><text x="13" y="86" class="tf fk">emp_title_id<tspan x="170.16" class="ty">VARCHAR(5)</tspan></text><text x="13" y="111" class="tf">birth_date<tspan x="170.16" class="ty">DATE</tspan></text><text x="13" y="136" class="tf">first_name<tspan x="170.16" class="ty">VARCHAR(20)</tspan></text><text x="13" y="161" class="tf">last_name<tspan x="170.16" class="ty">VARCHAR(20)</tspan></text><text x="13" y="186" class="tf">sex<tspan x="170.16" class="ty">VARCHAR(1)</tspan></text><text x="13" y="211" class="tf">hire_date<tspan x="170.16" class="ty">DATE</tspan></text></svg><svg width="201.17" height="100" x="82.66777777777783" y="178.7811111111112" id="h475896179" class="t"><rect height="40" width="201.17" class="th"></rect><text x="13" y="25" class="tht">departments</text><rect height="60" width="201.17" class="t-bg"></rect><text x="13" y="61" class="tf pk">dept_no<tspan x="188.17" class="ty">VARCHAR(4)</tspan></text><path d="M7,14A2,2 0 0,1 5,12A2,2 0 0,1 7,10A2,2 0 0,1 9,12A2,2 0 0,1 7,14M12.65,10C11.83,7.67 9.61,6 7, 6A6, 6 0 0, 0 1, 12A6, 6 0 0, 0 7, 18C9.61, 18 11.83, 16.33 12.65, 14H17V18H21V14H23V10H12.65Z" class="i pk" transform="translate(95.71882812499999, 48) scale(0.65)"></path><text x="13" y="86" class="tf">dept_name<tspan x="188.17" class="ty">VARCHAR(20)</tspan></text><path d="M22,18V22H18V19H15V16H12L9.74,13.74C9.19,13.91 8.61,14 8,14A6,6 0 0,1 2,8A6,6 0 0,1 8,2A6,6 0 0,1 14,8C14,8.61 13.91, 9.19 13.74, 9.74L22, 18M7, 5A2, 2 0 0, 0 5, 7A2, 2 0 0, 0 7, 9A2, 2 0 0, 0 9, 7A2, 2 0 0, 0 7, 5Z" class="i uq" transform="translate(93.04499999999999, 75.5) scale(0.5)"></path></svg><svg width="181.83" height="100" x="81.78333333333336" y="8.564444444444602" id="h1090417462" class="t"><rect height="40" width="181.83" class="th"></rect><text x="13" y="25" class="tht">dept_emp</text><rect height="60" width="181.83" class="t-bg"></rect><text x="13" y="61" class="tf pk">emp_no<tspan x="168.83" class="ty">INT</tspan></text><path d="M7,14A2,2 0 0,1 5,12A2,2 0 0,1 7,10A2,2 0 0,1 9,12A2,2 0 0,1 7,14M12.65,10C11.83,7.67 9.61,6 7, 6A6, 6 0 0, 0 1, 12A6, 6 0 0, 0 7, 18C9.61, 18 11.83, 16.33 12.65, 14H17V18H21V14H23V10H12.65Z" class="i pk" transform="translate(129.499921875, 48) scale(0.65)"></path><text x="13" y="86" class="tf pk">dept_no<tspan x="168.83" class="ty">VARCHAR(4)</tspan></text><path d="M7,14A2,2 0 0,1 5,12A2,2 0 0,1 7,10A2,2 0 0,1 9,12A2,2 0 0,1 7,14M12.65,10C11.83,7.67 9.61,6 7, 6A6, 6 0 0, 0 1, 12A6, 6 0 0, 0 7, 18C9.61, 18 11.83, 16.33 12.65, 14H17V18H21V14H23V10H12.65Z" class="i pk" transform="translate(76.37882812500001, 73) scale(0.65)"></path></svg></g></g><text class="qdbd-link" x="10" y="20">www.quickdatabasediagrams.com</text></svg>